<svg width="456" height="135" viewBox="0 0 456 135" fill="none" xmlns="http://www.w3.org/2000/svg">
<path d="M423.201 59.9976C423.201 44.2409 409.994 31.4272 393.755 31.4272H331.918V134.28H299.527V15.7136C299.527 7.02828 306.771 0 315.723 0H393.755C427.912 0 455.592 26.856 455.592 59.9976V134.28H423.201V59.9976Z" fill="white"/>
<path d="M283.319 0H250.929V134.28H283.319V0Z" fill="white"/>
<path d="M189.103 134.28C214.309 134.28 234.744 114.452 234.744 89.996V44.2838C234.744 19.8277 214.309 0 189.103 0H61.8368C27.6793 0 0 26.856 0 59.9976V134.28H32.3907V59.9976C32.3907 44.2409 45.5973 31.4272 61.8368 31.4272H189.103C196.406 31.4272 202.354 37.1984 202.354 44.2838V89.996C202.354 97.0817 196.406 102.853 189.103 102.853H130.211C122.908 102.853 116.96 97.0817 116.96 89.996C116.96 82.9108 122.908 77.1394 130.211 77.1394H187.631V45.7123H130.211C105.005 45.7123 84.569 65.5398 84.569 89.996C84.569 114.452 105.005 134.28 130.211 134.28H189.103Z" fill="white"/>
</svg>
